# xmcd
#
# Track frame offsets: 
#        180
#        21565
#        39487
#        56780
#        74839
#        90812
#        114660
#        133567
#        165229
#
# Disc length: 2418 seconds
#
# Revision: 0
# Processed by: cddbd v1.5.2PL0 Copyright (c) Steve Scherf et al.
# Submitted via: ExactAudioCopy v0.99pb5
#
DISCID=77097009
DTITLE=Pizza Platters - Stick People
DYEAR=1994
DGENRE=Blues
TTITLE0=Ball and Chain
TTITLE1=Hard For You
TTITLE2=Keep Your Hand On Me
TTITLE3=In a Heartbeat
TTITLE4=Low  Down and Dirty
TTITLE5=Where You Belong
TTITLE6=Brand New Day
TTITLE7=Can't Quit It
TTITLE8=3 Roses
EXTD=
EXTT0=
EXTT1=
EXTT2=
EXTT3=
EXTT4=
EXTT5=
EXTT6=
EXTT7=
EXTT8=
PLAYORDER=
